<?xml version="1.0" encoding="iso-8859-1"?>
<!-- Generator: Adobe Illustrator 19.0.0, SVG Export Plug-In . SVG Version: 6.00 Build 0)  -->
<svg version="1.1" id="Capa_1" xmlns="http://www.w3.org/2000/svg" xmlns:xlink="http://www.w3.org/1999/xlink" x="0px" y="0px"
	 viewBox="0 0 511.999 511.999" style="enable-background:new 0 0 511.999 511.999;" xml:space="preserve">
<path style="fill:#FB8D4B;" d="M127.688,30.043L127.688,30.043c-27.712,16.547-36.763,52.426-20.216,80.138l102.439,171.558
	l100.353-59.922L207.826,50.258C191.278,22.546,155.4,13.496,127.688,30.043z"/>
<path style="fill:#E86D24;" d="M219.918,261.726L117.478,90.169c-8.538-14.299-10.245-30.768-6.106-45.638
	c-14.219,18.45-16.567,44.437-3.9,65.649l102.439,171.558l100.353-59.922l-6.179-10.348L219.918,261.726z"/>
<path style="fill:#FDCA74;" d="M272.931,114.422c0,0-112.023-18.655-152.449,81.405v49.822l140.624,19.573l36.21-39.146
	L272.931,114.422z"/>
<path style="fill:#E6A537;" d="M150.499,211.731c26.967-66.747,80.655-89.175,122.72-95.989l-0.288-1.32
	c0,0-112.023-18.655-152.449,81.405v49.822l30.018,4.178L150.499,211.731L150.499,211.731z"/>
<path style="fill:#FB8D4B;" d="M371.879,10.756L371.879,10.756c-30.406-10.826-63.832,5.045-74.659,35.452l-67.026,188.237
	l110.111,39.207l67.026-188.237C418.157,55.009,402.285,21.583,371.879,10.756z"/>
<path style="fill:#E86D24;" d="M250.206,234.444l67.026-188.237c7.321-20.56,24.979-34.459,45.044-37.968
	c-27.543-4.817-55.36,10.739-65.056,37.968l-67.026,188.237l110.111,39.207l2.251-6.324L250.206,234.444z"/>
<g>
	<path style="fill:#FEEA61;" d="M354.268,60.217c-18.038-6.423-36.415-1.083-41.047,11.928c-0.014,0.041-0.029,0.081-0.043,0.122
		c-1.79,5.142,3.018,10.265,8.281,8.868c7.289-1.934,16.093-1.58,24.818,1.527c8.724,3.107,15.771,8.396,20.198,14.503
		c3.196,4.409,10.16,3.477,12.022-1.639c0.015-0.04,0.029-0.081,0.044-0.122C383.172,82.393,372.304,66.64,354.268,60.217z"/>
	<path style="fill:#FEEA61;" d="M330.843,126.003c-18.038-6.423-36.415-1.083-41.047,11.928c-0.014,0.041-0.029,0.081-0.043,0.122
		c-1.79,5.142,3.018,10.265,8.281,8.868c7.289-1.934,16.093-1.58,24.818,1.527c8.724,3.107,15.771,8.396,20.198,14.503
		c3.196,4.409,10.16,3.477,12.022-1.639c0.015-0.04,0.029-0.081,0.044-0.122C359.747,148.179,348.88,132.426,330.843,126.003z"/>
	<path style="fill:#FEEA61;" d="M154.605,75.121c-16.439,9.816-24.026,27.386-16.946,39.243c0.022,0.037,0.044,0.074,0.067,0.111
		c2.825,4.656,9.836,4.211,12.111-0.736c3.151-6.852,9.031-13.414,16.983-18.162c7.952-4.748,16.517-6.812,24.044-6.336
		c5.434,0.343,9.151-5.618,6.393-10.313c-0.022-0.037-0.044-0.074-0.066-0.111C190.11,66.96,171.043,65.305,154.605,75.121z"/>
</g>
<path style="fill:#D9A856;" d="M401.731,195.827l-14.215,15.224l-20.609-22.071c-2.527-2.707-6.819-2.707-9.346,0l-20.609,22.071
	l-20.609-22.071c-2.527-2.707-6.819-2.707-9.346,0l-20.609,22.071l-20.609-22.071c-2.527-2.707-6.819-2.707-9.346,0l-20.609,22.071
	l-20.609-22.071c-2.527-2.707-6.819-2.707-9.346,0l-20.609,22.071l-20.609-22.071c-2.527-2.707-6.819-2.707-9.346,0l-20.609,22.071
	l-14.215-15.224c-3.96-4.241-11.066-1.439-11.066,4.364v274.202c0,16.709,13.545,30.254,30.254,30.254h242.873
	c16.709,0,30.254-13.545,30.254-30.254V200.19C412.797,194.388,405.69,191.585,401.731,195.827z"/>
<path d="M181.571,350.331v13.034c0,4.144,3.36,7.504,7.504,7.504s7.504-3.36,7.504-7.504v-13.034c0-4.144-3.36-7.504-7.504-7.504
	S181.571,346.187,181.571,350.331z"/>
<path d="M325.609,350.331v13.034c0,4.144,3.36,7.504,7.504,7.504s7.504-3.36,7.504-7.504v-13.034c0-4.144-3.36-7.504-7.504-7.504
	S325.609,346.187,325.609,350.331z"/>
<path d="M273.219,357.519c-2.944,3.368-7.362,5.299-12.125,5.299c-4.763,0-9.181-1.931-12.125-5.299
	c-2.728-3.12-7.467-3.439-10.589-0.711c-3.121,2.729-3.439,7.468-0.711,10.589c5.794,6.629,14.332,10.43,23.426,10.43
	c9.092,0,17.631-3.801,23.426-10.43c2.728-3.121,2.409-7.861-0.711-10.589C280.688,354.08,275.947,354.399,273.219,357.519z"/>
<path d="M319.68,88.723c3.863,0,7.571-1.37,11.435-1.43c4.27-0.067,8.627,0.864,12.632,2.289c7.004,2.494,12.914,6.698,16.64,11.837
	c2.726,3.76,6.963,5.916,11.628,5.916c6.137,0,11.445-3.687,13.549-9.47c0.004-0.011,0.03-0.083,0.034-0.095
	c6.115-17.174-6.546-36.841-28.824-44.773c-17.592-6.264-43.448-3.699-50.657,16.546c-0.005,0.015-0.032,0.091-0.038,0.107
	c-1.536,4.412-0.858,9.135,1.861,12.961C310.659,86.438,315.048,88.723,319.68,88.723z M338.956,64.851
	c4.223,0,8.525,0.769,12.783,2.285c13.261,4.722,22.097,15.644,20.046,24.468c-5.491-7.103-13.611-12.818-23.003-16.161
	c-5.878-2.093-11.874-3.155-17.817-3.155c-3.539,0-6.974,0.384-10.23,1.143C323.298,68.182,330.282,64.851,338.956,64.851z"/>
<path d="M362.116,163.71l0.055-0.154c3.027-8.5,1.377-18.284-4.527-26.842c-5.472-7.933-14.1-14.3-24.297-17.93
	c-13.621-4.851-30.43-4.668-42.2,4.648c-7.24,5.729-12.682,16.457-6.635,24.965c2.721,3.828,7.109,6.114,11.741,6.114
	c3.977,0,7.793-1.421,11.776-1.427c10.753-0.017,22.556,5.33,28.93,14.122c2.726,3.76,6.964,5.917,11.629,5.917
	C354.725,173.121,360.033,169.434,362.116,163.71z M348.36,157.391c-5.491-7.104-13.611-12.819-23.003-16.162
	c-5.878-2.093-11.873-3.155-17.817-3.155c-3.539,0-6.975,0.384-10.231,1.143c2.564-5.249,9.548-8.579,18.223-8.579
	c4.223,0,8.525,0.768,12.783,2.285c7.146,2.544,13.334,7.032,16.977,12.314C346.995,147.707,349.524,152.41,348.36,157.391z"/>
<path d="M190.378,96.581c0.309,0.02,0.616,0.029,0.92,0.029h0.002c5.119,0,9.896-2.79,12.465-7.279
	c2.591-4.526,2.571-9.892-0.045-14.342l-0.099-0.167c-5.22-8.743-15.105-13.757-27.12-13.757c-8.672,0-17.578,2.582-25.756,7.463
	c-20.304,12.124-28.887,33.882-19.555,49.509l0.108,0.18c2.606,4.295,7.18,6.858,12.236,6.858c5.716,0,10.739-3.2,13.108-8.352
	c2.653-5.767,7.628-11.042,14.012-14.854C176.972,98.097,184.116,96.184,190.378,96.581z M162.96,88.983
	c-8.563,5.113-15.415,12.304-19.415,20.345c-3.764-8.196,2.777-20.679,14.895-27.915c5.768-3.444,12.183-5.341,18.062-5.341
	c6.031,0,10.881,1.959,13.568,5.469C180.97,81.24,171.564,83.847,162.96,88.983z"/>
<path d="M411.489,187.111c-5.345-2.108-11.334-0.755-15.256,3.444l-8.73,9.349l-9.44-10.11c0,0,36.318-101.996,36.324-102.013
	c11.629-32.659-4.88-69.823-36.87-83.041c-27.477-11.353-61.222-1.692-78.697,22.312c-3.668,5.038-6.592,10.617-8.682,16.488
	l-22.275,62.558c-4.311-0.411-10.618-0.812-18.308-0.722L214.258,46.26C195.616,15.04,155.05,4.807,123.83,23.449
	c-31.219,18.642-41.453,59.208-22.811,90.428l29.016,48.594c-5.171,7.251-9.704,15.161-13.608,23.679
	c-1.91-0.083-3.857,0.222-5.726,0.96c-5.346,2.108-8.8,7.183-8.8,12.93v274.202c0,20.82,16.939,37.758,37.759,37.758h242.873
	c20.821,0,37.759-16.938,37.759-37.758v-56.49c0-4.144-3.36-7.504-7.504-7.504c-4.144,0-7.504,3.36-7.504,7.504v56.49
	c0,12.544-10.206,22.749-22.75,22.749H139.658c-12.544,0-22.75-10.205-22.75-22.749V202.857c0,0,12.285,13.158,12.292,13.165
	c2.926,3.134,8.046,3.133,10.97,0l19.797-21.201c0,0,19.78,21.183,19.797,21.201c2.923,3.131,8.051,3.127,10.969,0l19.797-21.201
	c0,0,19.787,21.191,19.797,21.201c2.924,3.132,8.052,3.126,10.97,0l19.797-21.201c0,0,19.782,21.185,19.797,21.201
	c2.925,3.133,8.049,3.129,10.97,0l19.797-21.201c0,0,19.779,21.182,19.797,21.201c2.925,3.133,8.049,3.129,10.97,0l19.797-21.201
	c0,0,19.783,21.185,19.797,21.201c2.928,3.136,8.044,3.134,10.97,0l12.293-13.165v184.877c0,4.144,3.36,7.504,7.504,7.504
	c4.144,0,7.504-3.36,7.504-7.504V200.04C420.29,194.294,416.835,189.218,411.489,187.111z M210.53,179.359
	c-3.726,0-7.451,1.449-10.157,4.348l-15.124,16.197c0,0-15.119-16.191-15.124-16.197c-5.416-5.8-14.904-5.796-20.316,0
	l-15.124,16.197l-5.407-5.79c4.493-10.152,9.975-19.32,16.398-27.464c6.511-8.257,14.304-15.743,22.914-21.905
	c3.302-2.362,4.09-7.183,1.731-10.483c-2.412-3.371-7.1-4.148-10.47-1.736c-7.161,5.125-13.804,11.03-19.758,17.519l-26.189-43.861
	c-14.399-24.114-6.495-55.448,17.619-69.847c24.115-14.399,55.448-6.495,69.847,17.619l31.28,52.386
	c-13.754,1.417-29.653,4.628-45.664,11.227c-3.832,1.579-5.658,5.965-4.079,9.798c1.559,3.782,6.019,5.645,9.805,4.086
	c10.056-4.145,20.61-6.998,31.333-8.77c15.983-2.635,29.98-2.467,38.593-1.912l-27.804,78.087c0,0-14.141-15.145-14.146-15.15
	C217.982,180.809,214.256,179.359,210.53,179.359z M336.94,199.904l-15.123-16.196c-5.383-5.765-14.931-5.771-20.317,0
	l-15.124,16.197l-15.124-16.197c-2.619-2.804-6.321-4.412-10.159-4.412c-1.182,0-2.381,0.156-3.524,0.458
	c0,0,22.42-62.963,22.423-62.974c0,0,24.278-68.184,24.285-68.204c9.278-26.058,39.039-40.169,65.072-30.899
	c26.123,9.301,40.21,38.923,30.899,65.072l-34.538,96.995c-0.167-0.044-0.337-0.078-0.506-0.115
	c-1.446-0.319-2.94-0.413-4.414-0.259c-3.315,0.346-6.437,1.884-8.728,4.339L336.94,199.904z"/>
<g>
</g>
<g>
</g>
<g>
</g>
<g>
</g>
<g>
</g>
<g>
</g>
<g>
</g>
<g>
</g>
<g>
</g>
<g>
</g>
<g>
</g>
<g>
</g>
<g>
</g>
<g>
</g>
<g>
</g>
</svg>
